<?xml version="1.0" encoding="UTF-8"?><svg id="Layer_2" xmlns="http://www.w3.org/2000/svg" viewBox="0 0 396.09 402.46"><path d="m48.26,74.74c-.96-1.25-1.53-1.54-1.43-1.97.68-2.9,29.3-2.08,54.12,6.15,39.62,13.12,60.98,42.25,67.3,51.13,0,0,17.17,24.11,16.83,47.33-.05,3.58-.17,11.59-5.74,16.43-.76.67-2.7,2.34-5.35,2.87-7.55,1.49-14.91-7.56-21-13.96,0,0-10.51-11.03-30.26-23.74-12.37-7.96-26.38-16.97-44.22-15-15.31,1.69-25.65,10.6-28.7,13.43-3.02,2.81-11.85,11.23-14.61,24.39-1.28,6.11-.98,11.93-.78,15.78.32,6.2,1.31,11.33,2.22,15,2.33,4.57,2.54,9.1.52,10.83-2.72,2.33-8.7-1.11-11.09-2.48-3.97-2.28-6.37-5.14-8.48-7.7-2.71-3.28-4.49-6.37-5.61-8.61-4.04-7.56-6.4-14.34-7.83-19.43-.57-2.02.04-.12-3-15.26,0,0-1.57-7.81-1.04-19.83.03-.74.11-2.07,1.04-3,1.41-1.41,3.6-.73,7.04-.91,0,0,1.59-.08,6.52-1.3,7.35-1.82,14.76-8.22,15.78-9.11,17.02-14.92,20.78-40.54,20.87-48,.04-3.63.11-8.82-3.13-13.04h.03Z"/><path d="m231.74,3.71c.59-1.46.54-2.1.97-2.24,2.84-.89,16.72,24.15,22.3,49.7,8.91,40.77-5.26,74-9.68,83.97,0,0-11.99,27.07-32.14,38.61-3.1,1.78-10.06,5.76-17.06,3.44-.96-.32-3.39-1.12-5.19-3.14-5.13-5.73-1.09-16.68,1.3-25.18,0,0,4.13-14.66,5-38.14.54-14.7,1.15-31.34-9.64-45.69-9.26-12.31-22.2-16.66-26.19-17.84-3.96-1.17-15.7-4.47-28.43-.13-5.91,2.01-10.76,5.24-13.98,7.37-5.17,3.43-9.08,6.91-11.77,9.55-2.74,4.33-6.54,6.82-9.05,5.97-3.39-1.15-3.48-8.05-3.52-10.8-.06-4.57,1.17-8.1,2.3-11.22,1.44-4,3.2-7.11,4.55-9.21,4.45-7.33,9.08-12.81,12.73-16.64,1.45-1.52.12-.03,11.6-10.36,0,0,5.92-5.33,16.52-11.01.65-.35,1.83-.96,3.11-.63,1.93.5,2.46,2.72,4.38,5.59,0,0,.88,1.33,4.45,4.95,5.31,5.4,14.59,8.5,15.88,8.93,21.51,7.03,45.47-2.79,51.93-6.52,3.14-1.81,7.64-4.4,9.63-9.34h0Z"/><path d="m383.9,134.14c1.56-.21,2.1-.56,2.42-.26,2.18,2.03-12.76,26.46-32.23,43.91-31.08,27.86-66.97,31.92-77.82,32.99,0,0-29.46,2.92-49.44-8.92-3.08-1.82-9.97-5.91-11.41-13.15-.2-.99-.7-3.5.17-6.07,2.46-7.29,13.97-9.18,22.55-11.29,0,0,14.8-3.64,35.64-14.46,13.06-6.78,27.83-14.45,34.99-30.91,6.14-14.13,3.55-27.53,2.6-31.58-.94-4.02-3.86-15.86-13.91-24.8-4.66-4.15-9.86-6.78-13.31-8.52-5.54-2.8-10.49-4.49-14.12-5.53-5.12-.25-9.16-2.32-9.65-4.93-.67-3.51,5.28-7,7.66-8.39,3.95-2.31,7.63-2.97,10.89-3.53,4.2-.72,7.76-.73,10.26-.59,8.57.25,15.62,1.58,20.75,2.87,2.03.51.09.09,14.73,4.98,0,0,7.55,2.52,17.72,8.95.63.4,1.74,1.12,2.08,2.4.52,1.92-1.16,3.49-2.71,6.57,0,0-.72,1.42-2.11,6.31-2.08,7.28-.2,16.89.07,18.22,4.49,22.18,24.85,38.18,31.28,41.97,3.13,1.84,7.6,4.47,12.87,3.77h.03Z"/><path d="m347.83,327.7c.96,1.25,1.53,1.54,1.43,1.97-.68,2.9-29.3,2.08-54.12-6.15-39.62-13.12-60.98-42.25-67.3-51.13,0,0-17.17-24.11-16.83-47.33.05-3.58.17-11.59,5.74-16.43.76-.67,2.7-2.34,5.35-2.87,7.55-1.49,14.91,7.56,21,13.96,0,0,10.51,11.03,30.26,23.74,12.37,7.96,26.38,16.97,44.22,15,15.31-1.69,25.65-10.6,28.7-13.43,3.02-2.81,11.85-11.23,14.61-24.39,1.28-6.11.98-11.93.78-15.78-.32-6.2-1.31-11.33-2.22-15-2.33-4.57-2.54-9.1-.52-10.83,2.72-2.33,8.7,1.11,11.09,2.48,3.97,2.28,6.37,5.14,8.48,7.7,2.71,3.28,4.49,6.37,5.61,8.61,4.04,7.56,6.4,14.34,7.83,19.43.57,2.02-.04.12,3,15.26,0,0,1.57,7.81,1.04,19.83-.03.74-.11,2.07-1.04,3-1.41,1.41-3.6.73-7.04.91,0,0-1.59.08-6.52,1.3-7.35,1.82-14.76,8.22-15.78,9.11-17.02,14.92-20.78,40.54-20.87,48-.04,3.63-.11,8.82,3.13,13.04h-.03Z"/><path d="m164.34,398.74c-.59,1.46-.54,2.1-.97,2.24-2.84.89-16.72-24.15-22.3-49.7-8.91-40.77,5.26-74,9.68-83.97,0,0,11.99-27.07,32.14-38.61,3.1-1.78,10.06-5.76,17.06-3.44.96.32,3.39,1.12,5.19,3.14,5.13,5.73,1.09,16.68-1.3,25.18,0,0-4.13,14.66-5,38.14-.54,14.7-1.15,31.34,9.64,45.69,9.26,12.31,22.2,16.66,26.19,17.84,3.96,1.17,15.7,4.47,28.43.13,5.91-2.01,10.76-5.24,13.98-7.37,5.17-3.43,9.08-6.91,11.77-9.55,2.74-4.33,6.54-6.82,9.05-5.97,3.39,1.15,3.48,8.05,3.52,10.8.06,4.57-1.17,8.1-2.3,11.22-1.44,4-3.2,7.11-4.55,9.21-4.45,7.33-9.08,12.81-12.73,16.64-1.45,1.52-.12.03-11.6,10.36,0,0-5.92,5.33-16.52,11.01-.65.35-1.83.96-3.11.63-1.93-.5-2.46-2.72-4.38-5.59,0,0-.88-1.33-4.45-4.95-5.31-5.4-14.59-8.5-15.88-8.93-21.51-7.03-45.47,2.79-51.93,6.52-3.14,1.81-7.64,4.4-9.63,9.34h0Z"/><path d="m12.18,268.3c-1.56.21-2.1.56-2.42.26-2.18-2.03,12.76-26.46,32.23-43.91,31.08-27.86,66.97-31.92,77.82-32.99,0,0,29.46-2.92,49.44,8.92,3.08,1.82,9.97,5.91,11.41,13.15.2.99.7,3.5-.17,6.07-2.46,7.29-13.97,9.18-22.55,11.29,0,0-14.8,3.64-35.64,14.46-13.06,6.78-27.83,14.45-34.99,30.91-6.14,14.13-3.55,27.53-2.6,31.58.94,4.02,3.86,15.86,13.91,24.8,4.66,4.15,9.86,6.78,13.31,8.52,5.54,2.8,10.49,4.49,14.12,5.53,5.12.25,9.16,2.32,9.65,4.93.67,3.51-5.28,7-7.66,8.39-3.95,2.31-7.63,2.97-10.89,3.53-4.2.72-7.76.73-10.26.59-8.57-.25-15.62-1.58-20.75-2.87-2.03-.51-.09-.09-14.73-4.98,0,0-7.55-2.52-17.72-8.95-.63-.4-1.74-1.12-2.08-2.4-.52-1.92,1.16-3.49,2.71-6.57,0,0,.72-1.42,2.11-6.31,2.08-7.28.2-16.89-.07-18.22-4.49-22.18-24.85-38.18-31.28-41.97-3.13-1.84-7.6-4.47-12.87-3.77h-.03Z"/></svg>